<svg xmlns="http://www.w3.org/2000/svg" width="100" height="100" viewBox="0 0 100 100"><g><g><path fill="#0082ed" d="M46.536 87.096l2.456 2.445-7.875 7.199c-2.087 2.084-4.927 3.26-7.95 3.26a11.256 11.256 0 0 1-8.003-3.309L3.316 74.893a11.2 11.2 0 0 1-3.314-7.982c0-3.016 1.176-5.852 3.314-7.984l7.216-7.2 11.986 11.958-6.386 6.37a1.613 1.613 0 0 0 0 2.282l5.507 5.493.646-1.937a11.307 11.307 0 0 1 8.71-7.537l10.806-1.961v-.836c-3.967-2.296-6.87-6.219-7.777-10.854-2.94-.607-5.156-3.209-5.156-6.318v-11.29c0-11.562 9.428-20.969 21.016-20.969 11.588 0 21.017 9.407 21.017 20.968v19.355c0 2.668-2.176 4.839-4.85 4.839h-3.264a16.262 16.262 0 0 1-4.82 4.27v.835l10.804 1.96a11.31 11.31 0 0 1 8.712 7.538l3.743 11.203zm21.131-33.155a6.42 6.42 0 0 1-1.922.764 15.997 15.997 0 0 1-1.054 3.36h1.36c.89 0 1.616-.724 1.616-1.614zm0-5.554a3.215 3.215 0 0 0-1.616-2.778v5.555a3.214 3.214 0 0 0 1.616-2.777zm-33.949-2.778a3.215 3.215 0 0 0-1.617 2.778c0 1.188.655 2.217 1.617 2.777zm1.617-5.287c4.78 0 9.274-1.858 12.656-5.23l1.893-1.89 1.893 1.89a17.807 17.807 0 0 0 12.657 5.23h1.617v1.842a6.35 6.35 0 0 1 1.616.668v-5.736c0-9.782-7.978-17.742-17.783-17.742-9.805 0-17.783 7.96-17.783 17.742v5.736a6.399 6.399 0 0 1 1.617-.668v-1.842zm14.55 24.194c3.267 0 6.246-1.225 8.525-3.226h-8.526v-3.226h11.184c1.106-1.9 1.75-4.1 1.75-6.451v-8.127a20.974 20.974 0 0 1-12.934-5.732 20.982 20.982 0 0 1-12.933 5.732v8.127c0 7.114 5.802 12.903 12.933 12.903zm0 3.226c-1.69 0-3.318-.264-4.85-.744v.076l4.85 4.838 4.85-4.838v-.076c-1.533.48-3.161.744-4.85.744zM24.192 80.38l3.53 3.523c.612.611 1.677.611 2.286 0l6.997-6.314 6.297 6.281h33.438l-2.326-6.956a8.078 8.078 0 0 0-6.222-5.386L56.894 69.48l-7.01 6.994-7.011-6.996-11.3 2.049a8.08 8.08 0 0 0-6.223 5.385zM8.775 58.04l7.414 7.397 1.756-1.752-7.414-7.397zm31.031 35.525l-7.448-7.43-.12.108c-.858.858-2.075 1.361-3.371 1.361a4.829 4.829 0 0 1-3.43-1.417L13.842 74.62a4.839 4.839 0 0 1 0-6.843l.058-.058-7.413-7.397-.89.887a8.003 8.003 0 0 0-2.366 5.704c0 2.153.84 4.178 2.366 5.701l21.85 21.797a8.048 8.048 0 0 0 5.716 2.363 8.05 8.05 0 0 0 5.714-2.36zm4.509-4.122l-7.419-7.401-2.135 1.925 7.431 7.415zM100 4.838v12.903c0 2.668-2.176 4.84-4.85 4.84h-4.386l-15.6 9.727 1.671-9.728h-4.318c-2.674 0-4.85-2.171-4.85-4.839V4.838c0-2.667 2.176-4.839 4.85-4.839H95.15C97.824 0 100 2.171 100 4.84zm-3.233 0c0-.889-.726-1.613-1.617-1.613H72.517c-.89 0-1.616.724-1.616 1.613v12.903c0 .89.725 1.613 1.616 1.613h8.153l-1.101 6.402 10.267-6.402h5.314c.89 0 1.617-.724 1.617-1.613zM74.134 6.452h19.4v3.225h-19.4zm0 6.45h12.933v3.226H74.134zm16.166 0h3.233v3.226H90.3zM63.296 6.855l-.957 3.081a42.127 42.127 0 0 0-12.455-1.87c-19.43 0-36.196 13.282-40.778 31.883l4.382-2.623 1.663 2.767-9.469 5.669L0 36.314l2.773-1.66 3.063 5.096c4.73-20.334 22.925-34.912 44.048-34.912 4.572 0 9.084.678 13.412 2.016zM97.55 38.48l-4.752-2.844A44.854 44.854 0 0 1 95.15 50a45.197 45.197 0 0 1-10.098 28.435l-2.51-2.032A41.972 41.972 0 0 0 91.917 50c0-4.66-.762-9.207-2.25-13.554l-2.83 4.705-2.772-1.66 5.68-9.448 9.47 5.67z"/></g></g></svg>