<svg xmlns="http://www.w3.org/2000/svg" width="101" height="101" viewBox="0 0 101 101"><g><g><path fill="#28292d" d="M101 85.509h-5l1.629 1.557a8.097 8.097 0 0 1 2 8.71A8.052 8.052 0 0 1 92.404 101h-.316a7.966 7.966 0 0 1-5.58-2.265L72.85 85.51H0V-.001h101zm-47.65-3.167l1.477-4.17-2.405.645-14.173-14.221 3.773-14.128L53.146 61.63l6.696-6.717-11.125-11.164 14.081-3.787 14.173 14.224-2.822 10.568 18.517 17.588h5.178V15.835H3.156v66.507zm16.228 0l-6.576-6.367-4.471 1.2-1.83 5.167zM95.46 89.36L70.62 65.755l2.84-10.624-11.596-11.636-7.043 1.9 9.493 9.526-11.158 11.195-9.491-9.524-1.895 7.065L53.37 75.286l10.544-2.835 10.21 9.89h.048v.048l14.525 14.067a4.909 4.909 0 0 0 3.585 1.374 4.846 4.846 0 0 0 3.472-1.644 4.896 4.896 0 0 0-.293-6.825zm2.383-86.195H3.156v9.502h94.688zM31.562 6.333h63.125V9.5H31.562zm-25.25 0H9.47V9.5H6.312zm6.313 0h3.156V9.5h-3.156zm6.312 0h3.157V9.5h-3.157z"/></g><g><path fill="#0082ed" d="M39.756 58.954a12.563 12.563 0 0 1-2.004-6.823c.007-6.992 5.656-12.66 12.625-12.667a12.453 12.453 0 0 1 6.797 2.01l3.814-1.024a15.593 15.593 0 0 0-10.611-4.154c-8.712.01-15.772 7.095-15.782 15.835a15.707 15.707 0 0 0 4.138 10.648zm35.58 1.366l8.305-2.97V47.16l-7.83-2.792-1.856-4.489 3.569-7.535-7.18-7.205-7.51 3.58-4.474-1.86-2.782-7.857H45.422l-2.783 7.857-4.474 1.86-7.509-3.58-7.18 7.205 3.569 7.535-1.855 4.489-7.83 2.792v10.19l7.83 2.793 1.855 4.489-3.569 7.535 7.18 7.205 7.51-3.58 4.473 1.86 1.66 4.69h3.35l-2.515-7.079-7.063-2.936-6.764 3.225-4.03-4.044 3.212-6.787-2.919-7.082-7.054-2.523v-5.72l7.054-2.518 2.926-7.088-3.213-6.787 4.03-4.044 6.764 3.224 7.057-2.936 2.516-7.079h5.7l2.51 7.08 7.063 2.935 6.764-3.224 4.03 4.044-3.213 6.787 2.926 7.082 7.054 2.523v5.72l-4.156 1.483z"/></g></g></svg>