<svg xmlns="http://www.w3.org/2000/svg" width="101" height="101" viewBox="0 0 101 101"><g><g><path fill="#28292d" d="M48.87 52.128v-9.773H32.58v-19.55H13.033v9.1l3.736-3.734 2.303 2.303-7.668 7.668-7.668-7.668L6.04 28.17l3.735 3.735V19.548h22.807v-8.82L43.309 0h25.11v19.548h22.807v12.358l3.735-3.735 2.304 2.303-7.668 7.668-7.668-7.668 2.303-2.303 3.736 3.735v-9.1H68.419v19.549H52.13v9.773zM32.58 71.677h-6.515v19.848h-3.259V71.677h-9.774v6.748H9.774V52.128H0V39.096h22.806v13.032h-9.774V68.42h19.549zm55.388 6.748v-6.748h-9.775v19.848h-3.258V71.677H68.42v-3.258h19.549V52.13h-9.775V39.095H101v13.032h-9.774v26.297zM38.142 9.774h4.213V5.56zM35.84 39.096H65.16V3.258H45.613v9.774h-9.774zM3.258 48.871h16.29v-6.516H3.258zm78.193 0h16.29v-6.516h-16.29z"/></g><g><path fill="#0082ed" d="M89.597 91.225a6.523 6.523 0 0 1-6.516-6.516c0-3.026 2.083-5.557 4.887-6.284 0 0 1.24-.403 3.258 0 2.804.727 4.887 3.258 4.887 6.284a6.523 6.523 0 0 1-6.516 6.516zM76.564 101a4.893 4.893 0 0 1-4.887-4.887c0-2.12 1.367-3.912 3.258-4.587 0 0 1.7-.528 3.258 0 1.892.675 3.258 2.467 3.258 4.587A4.893 4.893 0 0 1 76.564 101zm-10.26-21.415l-6.27 6.269-3.77-1.887-1.333 4.001h-8.864l-1.332-4-3.771 1.886-6.27-6.269 1.886-3.77-4-1.333v-8.866l4-1.334-1.885-3.77 6.269-6.268 3.77 1.886 1.333-4h8.866l1.332 4 3.771-1.886 6.269 6.269-1.885 3.769 4 1.334v8.866l-4.002 1.334zM39.096 32.58h22.806v3.258H39.097zm0-6.516h22.806v3.258H39.097zm0-6.516h22.806v3.258H39.097zm9.774-6.516h13.032v3.258H48.871zm0-6.516h13.032v3.258H48.871zm-24.436 94.483a4.893 4.893 0 0 1-4.887-4.887c0-2.12 1.367-3.912 3.258-4.587 0 0 1.898-.532 3.259 0 1.891.675 3.258 2.467 3.258 4.587A4.893 4.893 0 0 1 24.435 101zm-13.032-9.774a6.523 6.523 0 0 1-6.516-6.516c0-3.026 2.083-5.557 4.887-6.284h3.258c2.804.727 4.887 3.258 4.887 6.284a6.523 6.523 0 0 1-6.516 6.516zm0-9.774a3.261 3.261 0 0 0-3.258 3.258 3.261 3.261 0 0 0 3.258 3.258 3.261 3.261 0 0 0 3.258-3.258 3.261 3.261 0 0 0-3.258-3.258zm14.661 14.661c0-.897-.73-1.629-1.629-1.629-.898 0-1.629.732-1.629 1.63 0 .897.73 1.628 1.63 1.628.898 0 1.629-.731 1.629-1.629zm39.097-28.148l-3.735-1.246L61.15 66c-.082-.208-.162-.414-.253-.617l-.316-.706 1.761-3.522-2.947-2.947-3.522 1.761-.705-.316c-.2-.09-.404-.171-.61-.25l-.726-.273-1.248-3.743h-4.168l-1.248 3.742-.726.273c-.207.078-.41.16-.61.25l-.705.315-3.523-1.76-2.947 2.946 1.762 3.523-.316.704c-.09.202-.171.41-.253.619l-.275.718-3.737 1.246v4.168l3.735 1.246.275.719c.082.208.162.413.253.617l.316.706-1.761 3.522 2.947 2.947 3.522-1.761.705.315c.2.09.404.172.61.25l.726.274 1.248 3.743h4.168l1.248-3.743.726-.274c.206-.078.41-.16.61-.25l.705-.315 3.522 1.76 2.947-2.946-1.76-3.522.315-.706c.09-.201.171-.409.253-.617l.275-.719 3.737-1.246zm13.032 28.148c0-.897-.73-1.629-1.629-1.629-.898 0-1.629.732-1.629 1.63 0 .897.73 1.628 1.63 1.628.898 0 1.628-.731 1.628-1.629zm11.404-14.66a3.261 3.261 0 0 0-3.258 3.257 3.261 3.261 0 0 0 3.258 3.258 3.261 3.261 0 0 0 3.258-3.258 3.261 3.261 0 0 0-3.258-3.258zM50.5 78.192c-4.491 0-8.145-3.654-8.145-8.145s3.654-8.145 8.145-8.145c4.49 0 8.145 3.654 8.145 8.145s-3.654 8.145-8.145 8.145zm0-13.032a4.893 4.893 0 0 0-4.887 4.887 4.893 4.893 0 0 0 4.887 4.887 4.893 4.893 0 0 0 4.887-4.887A4.893 4.893 0 0 0 50.5 65.16z"/></g></g></svg>