<svg xmlns="http://www.w3.org/2000/svg" width="110" height="100" viewBox="0 0 110 100"><g><g><path fill="#28292d" d="M10.742 40.217c-1.187 0-2.148-.973-2.148-2.174 0-1.2.961-2.174 2.148-2.174h11.05c1.187 0 2.15.973 2.15 2.174 0 1.2-.963 2.174-2.15 2.174zm17.3 0c-1.187 0-2.149-.973-2.149-2.174 0-1.2.962-2.174 2.149-2.174h.102c1.186 0 2.148.973 2.148 2.174 0 1.2-.962 2.174-2.148 2.174zm7.407 15.218c0 5.393-4.337 9.782-9.669 9.782a9.581 9.581 0 0 1-3.758-.77 9.516 9.516 0 0 1-3.76.77c-5.331 0-9.668-4.389-9.668-9.782 0-5.395 4.337-9.783 9.668-9.783 1.333 0 2.604.274 3.76.77a9.574 9.574 0 0 1 3.758-.77c5.332 0 9.669 4.388 9.669 9.783zM18.262 50c-2.962 0-5.371 2.438-5.371 5.435 0 2.996 2.41 5.434 5.371 5.434 2.961 0 5.37-2.438 5.37-5.434 0-2.997-2.409-5.435-5.37-5.435zm8.051.027a9.808 9.808 0 0 1 1.617 5.408 9.807 9.807 0 0 1-1.617 5.408c2.713-.272 4.839-2.594 4.839-5.408 0-2.815-2.126-5.136-4.839-5.408zm77.269 23.886h-3.178l.747-4.348h2.43c1.17 0 2.122-.963 2.122-2.147V30.434H4.297v36.984c0 1.184.952 2.147 2.121 2.147h44.496l.747 4.348H6.418C2.88 73.913 0 70.999 0 67.418V6.494C0 2.914 2.879 0 6.418 0h97.164C107.12 0 110 2.913 110 6.494V67.42c0 3.58-2.88 6.494-6.418 6.494zm2.121-67.419c0-1.184-.952-2.147-2.121-2.147H6.418c-1.17 0-2.121.963-2.121 2.147v19.592h101.406zM67.278 65.537l6.02 6.092 11.49-11.624c.839-.849 2.2-.849 3.038 0 .839.85.839 2.226 0 3.075L74.817 76.24a2.128 2.128 0 0 1-3.038 0l-7.54-7.628a2.192 2.192 0 0 1 0-3.075 2.131 2.131 0 0 1 3.039 0zm7.887 21.287l.067-.031a2.138 2.138 0 0 1 2.858 1.045 2.186 2.186 0 0 1-1.033 2.892 7.679 7.679 0 0 1-.157.072 2.124 2.124 0 0 1-.866.185 2.147 2.147 0 0 1-1.967-1.297 2.183 2.183 0 0 1 1.098-2.866zm7.089-5.42a24.578 24.578 0 0 0 2.206-2.765 2.132 2.132 0 0 1 2.99-.548 2.19 2.19 0 0 1 .542 3.024 28.886 28.886 0 0 1-2.596 3.254 30.311 30.311 0 0 1-2.458 2.344 2.128 2.128 0 0 1-3.03-.246 2.192 2.192 0 0 1 .245-3.065c.812-.7 1.558-1.41 2.1-1.998z"/></g><g><path fill="#0082ed" d="M100.404 73.913c-1.917 8.21-6.255 14.026-10.045 17.752-5.533 5.438-11.875 8.334-14.326 8.334-2.451 0-8.794-2.896-14.326-8.334-3.79-3.726-8.128-9.541-10.046-17.752l-.747-4.348a40.53 40.53 0 0 1-.255-4.561V52.649c0-.98.65-1.84 1.586-2.097 8.026-2.206 15.452-5.366 22.702-9.66.67-.397 1.5-.397 2.171 0 7.05 4.176 14.901 7.516 22.703 9.66a2.17 2.17 0 0 1 1.585 2.097v12.355c0 1.585-.09 3.104-.255 4.56zm5.299-56.522H4.297v-4.348h101.406zm-8.594 36.906c-7.237-2.131-14.47-5.225-21.076-9.02-6.758 3.894-13.68 6.856-21.077 9.02v10.707c0 11.453 5.225 19.051 9.609 23.408 5.2 5.168 10.534 7.178 11.468 7.239.934-.06 6.268-2.071 11.468-7.239 4.383-4.357 9.608-11.955 9.608-23.408z"/></g></g></svg>