<svg xmlns="http://www.w3.org/2000/svg" width="101" height="94" viewBox="0 0 101 94"><g><g><path fill="#28292d" d="M101 5.035v83.929a5.043 5.043 0 0 1-5.05 5.035H5.05A5.043 5.043 0 0 1 0 88.964V3.357A3.362 3.362 0 0 1 3.367 0H95.95C98.739 0 101 2.254 101 5.035zm-3.367 13.429H3.367v70.5c0 .927.753 1.678 1.683 1.678h90.9c.93 0 1.683-.751 1.683-1.678zm0-13.429c0-.927-.753-1.678-1.683-1.678H3.367v11.75h94.266zM20.2 6.714v5.035c0 .927-.754 1.68-1.683 1.68h-6.734c-.93 0-1.683-.753-1.683-1.68V6.714c0-.927.754-1.679 1.683-1.679h6.734c.93 0 1.683.752 1.683 1.679zm-3.367 1.678h-3.366v1.68h3.366zm20.2-1.678v5.035c0 .927-.753 1.68-1.683 1.68h-6.733c-.93 0-1.684-.753-1.684-1.68V6.714c0-.927.754-1.679 1.684-1.679h6.733c.93 0 1.683.752 1.683 1.679zm-3.366 1.678H30.3v1.68h3.367zm20.2-1.678v5.035c0 .927-.754 1.68-1.684 1.68H45.45c-.93 0-1.683-.753-1.683-1.68V6.714c0-.927.753-1.679 1.683-1.679h6.733c.93 0 1.684.752 1.684 1.679zM50.5 8.392h-3.367v1.68H50.5zm3.367 33.572c0-11.125 9.043-20.143 20.2-20.143 11.156 0 20.2 9.018 20.2 20.143 0 11.124-9.044 20.143-20.2 20.143-11.152-.013-20.188-9.024-20.2-20.143zm3.366 0c0 9.27 7.537 16.786 16.834 16.786S90.9 51.235 90.9 41.964s-7.536-16.786-16.833-16.786c-9.293.01-16.824 7.52-16.834 16.786zM25.25 45.32h-3.367V31.893c0-.928.754-1.68 1.684-1.68H50.5v3.358H25.25zm48.817 20.143h3.366v16.785c0 .928-.753 1.68-1.683 1.68H50.5V80.57h23.567z"/></g><g><path fill="#0082ed" d="M8.232 71.805a3.321 3.321 0 0 0 1.868-2.984 3.321 3.321 0 0 0-1.868-2.984 1.676 1.676 0 0 1-.876-1.906 19.977 19.977 0 0 1 2.266-5.458 1.687 1.687 0 0 1 1.973-.73 3.333 3.333 0 0 0 3.436-.79 3.31 3.31 0 0 0 .795-3.425 1.678 1.678 0 0 1 .733-1.968 20.065 20.065 0 0 1 5.474-2.26 1.686 1.686 0 0 1 1.91.876 3.331 3.331 0 0 0 2.992 1.859 3.33 3.33 0 0 0 2.991-1.86 1.686 1.686 0 0 1 1.911-.876 20.063 20.063 0 0 1 5.474 2.26c.676.405.98 1.223.732 1.969a3.311 3.311 0 0 0 .794 3.426 3.335 3.335 0 0 0 3.435.792 1.687 1.687 0 0 1 1.973.73 19.973 19.973 0 0 1 2.265 5.457 1.676 1.676 0 0 1-.875 1.905 3.32 3.32 0 0 0-1.868 2.985 3.32 3.32 0 0 0 1.868 2.984 1.677 1.677 0 0 1 .875 1.906 19.904 19.904 0 0 1-2.265 5.457 1.687 1.687 0 0 1-1.973.73 3.334 3.334 0 0 0-3.435.789 3.312 3.312 0 0 0-.797 3.424 1.678 1.678 0 0 1-.732 1.968 20.064 20.064 0 0 1-5.474 2.26 1.685 1.685 0 0 1-1.911-.875 3.332 3.332 0 0 0-2.991-1.86 3.331 3.331 0 0 0-2.991 1.86 1.685 1.685 0 0 1-1.911.877 20.085 20.085 0 0 1-5.475-2.26 1.678 1.678 0 0 1-.732-1.969 3.312 3.312 0 0 0-.794-3.425 3.333 3.333 0 0 0-3.434-.79 1.687 1.687 0 0 1-1.973-.731 19.98 19.98 0 0 1-2.266-5.457 1.676 1.676 0 0 1 .876-1.906zm2.718-8.188l.002-.007-.002-.001zm.002-.007a6.66 6.66 0 0 1 2.515 5.21 6.66 6.66 0 0 1-2.517 5.213c.267.815.597 1.607.985 2.372a6.699 6.699 0 0 1 5.486 1.91 6.655 6.655 0 0 1 1.915 5.472c.766.389 1.56.716 2.377.98a6.698 6.698 0 0 1 5.228-2.507c2.034 0 3.958.922 5.227 2.507a16.68 16.68 0 0 0 2.379-.982 6.662 6.662 0 0 1 1.917-5.46 6.701 6.701 0 0 1 5.476-1.912c.39-.764.719-1.557.985-2.372a6.659 6.659 0 0 1-2.517-5.212 6.66 6.66 0 0 1 2.517-5.212 16.76 16.76 0 0 0-.993-2.372 6.696 6.696 0 0 1-5.477-1.911 6.656 6.656 0 0 1-1.916-5.46 16.32 16.32 0 0 0-2.377-.98 6.7 6.7 0 0 1-5.229 2.507 6.701 6.701 0 0 1-5.228-2.507c-.817.263-1.612.591-2.377.98a6.656 6.656 0 0 1-1.917 5.46 6.696 6.696 0 0 1-5.476 1.911 16.84 16.84 0 0 0-.983 2.365zm5.881 5.21c0-5.56 4.523-10.07 10.1-10.07 5.578 0 10.1 4.51 10.1 10.07 0 5.563-4.522 10.072-10.1 10.072-5.576-.006-10.094-4.511-10.1-10.071zm3.367 0c0 3.71 3.015 6.715 6.733 6.715 3.719 0 6.734-3.006 6.734-6.714 0-3.708-3.015-6.714-6.734-6.714-3.718 0-6.733 3.006-6.733 6.714zM71.193 54.9l-10.1-10.07a1.676 1.676 0 0 1 0-2.374l5.05-5.036a1.687 1.687 0 0 1 2.38 0l3.86 3.849 8.91-8.885a1.688 1.688 0 0 1 2.38 0l5.05 5.036a1.676 1.676 0 0 1 0 2.373L73.573 54.9a1.685 1.685 0 0 1-2.38 0zm-6.53-11.257l7.72 7.698 12.77-12.734-2.67-2.662-8.91 8.884a1.687 1.687 0 0 1-2.38 0l-3.86-3.849z"/></g></g></svg>