<svg xmlns="http://www.w3.org/2000/svg" width="100" height="100" viewBox="0 0 100 100"><g><g><path fill="#0082ed" d="M45.161 27.418a1.613 1.613 0 1 1 0 3.227 1.613 1.613 0 0 1 0-3.227zm9.678 0a1.613 1.613 0 1 1 0 3.227 1.613 1.613 0 0 1 0-3.227zm-8.065 6.071A3.586 3.586 0 0 0 50 35.483a3.586 3.586 0 0 0 3.226-1.994l.17-.342 2.885 1.444-.17.34A6.794 6.794 0 0 1 50 38.71a6.795 6.795 0 0 1-6.111-3.776l-.17-.34 2.886-1.444zM6.452 62.902h9.677v12.903H6.452zm3.225 9.677h3.226v-6.451H9.677zM0 62.902h3.226v12.903H0zm9.677-3.226H0V46.773h9.677zm-3.225-9.677H3.226v6.451h3.226zm6.451-3.226h3.226v12.903h-3.226zM100 32.257c0 12.956-9.642 23.813-22.277 25.545l2.614 13.077a15.87 15.87 0 0 1 .308 3.111 15.886 15.886 0 0 1-7.993 13.768l-2.023 1.156-.766 5.747a6.166 6.166 0 0 1-6.095 5.338H36.229a6.166 6.166 0 0 1-6.095-5.338l-.766-5.747-2.023-1.156a15.89 15.89 0 0 1-7.99-13.768c0-1.042.103-2.089.308-3.11l2.24-11.204h-2.548V46.773h9.677v.898a15.736 15.736 0 0 1 3.676-1.834 25.966 25.966 0 0 1-2.013-8.741h-6.502v2.688a3.768 3.768 0 0 1-3.762 3.763 3.78 3.78 0 0 1-3.012-1.506l-3.71-4.945H3.227A3.229 3.229 0 0 1 0 33.87V14.515a3.229 3.229 0 0 1 3.226-3.225h29.201C35.494 4.638 42.208 0 50 0c6.405 0 12.077 3.14 15.602 7.948a25.681 25.681 0 0 1 8.592-1.497C88.423 6.451 100 18.028 100 32.257zm-24.373 20.26a29.766 29.766 0 0 0 3.512-5.744H69.49a15.748 15.748 0 0 1 6.137 5.743zm-1.433-42.195c-1.19 1.264-3.199 3.734-4.921 7.42h9.845c-1.724-3.675-3.733-6.152-4.924-7.42zm19.525 10.645h-9.887c.858 2.801 1.449 6.034 1.592 9.677h11.268a22.368 22.368 0 0 0-2.973-9.677zm-13.303 0H69.355v9.677h12.843c-.16-3.708-.842-6.934-1.782-9.677zm.018 22.58c.935-2.742 1.62-5.97 1.777-9.677H69.355v1.856c0 2.699-.428 5.33-1.215 7.821zm3.387 0h9.895a22.428 22.428 0 0 0 2.98-9.677H85.438c-.144 3.642-.752 6.87-1.616 9.677zm-5.61-33.491c1.41 1.802 3.066 4.36 4.452 7.685h8.801a22.559 22.559 0 0 0-13.253-7.685zm-10.895.703c.344.69.647 1.405.908 2.14a31.62 31.62 0 0 1 1.978-2.856c-.978.174-1.94.413-2.886.716zM33.871 35.726c0 8.192 4.406 15.692 11.392 19.74a4.816 4.816 0 0 1 1.203-2.298 20.21 20.21 0 0 1-9.37-17.065V22.58c0-7.115 5.79-12.903 12.904-12.903s12.903 5.788 12.903 12.903v13.523c0 6.999-3.593 13.39-9.37 17.065a4.823 4.823 0 0 1 1.204 2.298c6.986-4.048 11.392-11.548 11.392-19.74V19.354c0-8.893-7.236-16.129-16.13-16.129-8.893 0-16.128 7.236-16.128 16.129zM59.677 22.58c0-5.337-4.34-9.678-9.677-9.678s-9.677 4.34-9.677 9.678v1.398l8.116-1.013a1.785 1.785 0 0 0 1.56-1.767 1.846 1.846 0 0 0-1.843-1.844c-.76 0-1.382.621-1.382 1.382v.23h-3.226v-.23a4.614 4.614 0 0 1 4.608-4.608c2.252 0 4.144 1.486 4.802 3.52a16.63 16.63 0 0 1 6.72 3.529zm-19.354 9.677c0 5.337 4.34 9.677 9.677 9.677s9.677-4.34 9.677-9.677v-4.311a13.375 13.375 0 0 0-6.785-4.953 5.022 5.022 0 0 1-4.053 3.172l-8.516 1.064zm18.335 9.54a12.994 12.994 0 0 1-1.913 1.439l.368 1.842c.637-1.028 1.135-2.134 1.545-3.28zm-15.402 1.439a12.812 12.812 0 0 1-1.91-1.439c.407 1.147.906 2.253 1.543 3.28zm2.276 5.076c1.299 1.256 2.786 2.337 4.47 3.142 1.683-.804 3.169-1.886 4.469-3.142l-.742-3.707a12.837 12.837 0 0 1-7.458 0zm2.855 11.364a1.614 1.614 0 0 0 3.226 0V56.45c0-.81-.61-1.453-1.389-1.568L50 54.98l-.224-.097c-.78.115-1.389.759-1.389 1.568zM30.645 33.87v-5.784l-3.698 3.699-2.28-2.281 5.31-5.311-5.31-5.312 2.28-2.28 3.698 3.698v-.945c0-1.674.236-3.288.637-4.839H3.226V33.87h12.096l4.676 6.237c.278.371.968.142.97-.323V33.87zm-8.064 22.58h.064a15.749 15.749 0 0 1 3.161-5.904v-.547h-3.225zm10.988 14.516a2.927 2.927 0 0 0-2.9 3.311l2.14 16.044H67.19l2.137-16.044a2.927 2.927 0 0 0-2.898-3.31zm33.099 23.269l.092-.688H33.24l.092.688a2.932 2.932 0 0 0 2.899 2.537h27.538c1.46 0 2.707-1.09 2.899-2.537zm4.501-9.354a12.65 12.65 0 0 0 6.25-10.89c0-.831-.084-1.663-.248-2.478l-2.637-13.19c-.918-4.59-4.284-8.214-8.7-9.555A26.02 26.02 0 0 1 54.837 59.07v.607a4.845 4.845 0 0 1-4.839 4.839 4.845 4.845 0 0 1-4.838-4.84v-.606a26.038 26.038 0 0 1-10.997-10.3c-4.416 1.34-7.78 4.964-8.7 9.554l-2.637 13.19a12.775 12.775 0 0 0-.245 2.477c0 4.476 2.393 8.63 6.25 10.892l-1.358-10.177a6.238 6.238 0 0 1-.054-.813c0-2.94 2.078-5.4 4.839-6.003v-4.607L30.816 60.4l2.886-1.444 1.782 3.566v5.22h29.032v-5.22l1.784-3.57 2.885 1.444-1.443 2.886v4.606c2.761.605 4.839 3.063 4.839 6.003 0 .271-.018.544-.054.815zM91.45 46.773h-8.789a33.596 33.596 0 0 1-4.466 7.695c5.303-.95 9.936-3.751 13.255-7.695zM14.043 18.88l-5.31 5.312 5.31 5.31-2.28 2.282-7.592-7.592 7.592-7.592zM16.17 30.25l3.218-12.901 3.128.78-3.219 12.9z"/></g></g></svg>