<svg xmlns="http://www.w3.org/2000/svg" width="100" height="100" viewBox="0 0 100 100"><g><g><path fill="#0082ed" d="M95.495 31.403a21.463 21.463 0 0 1-.67 1.605l2.406 3.975-8.633 8.632-3.975-2.406c-.534.249-1.07.473-1.605.671l-.916 3.727-.165.16c3.126 2.356 5.16 6.089 5.16 10.297 0 4.46-2.274 8.395-5.724 10.714C92.118 71.898 100 81.812 100 93.548V100H14.516a3.229 3.229 0 0 1-3.226-3.226v-3.226a3.23 3.23 0 0 1 3.226-3.226h6.452V83.87H8.064C3.618 83.87 0 80.253 0 75.806v-38.71c0-4.446 3.618-8.064 8.064-8.064h43.549V18.09l4.505-1.107c.198-.535.422-1.07.67-1.604l-2.406-3.976 8.632-8.633 3.976 2.407c.534-.249 1.07-.472 1.605-.671L69.703 0H81.91l1.108 4.506c.535.199 1.07.422 1.604.67l3.975-2.407 8.632 8.632-2.406 3.976c.248.534.472 1.07.67 1.605L100 18.09v12.206zm-92.27 5.693v33.871h3.227V38.71a3.23 3.23 0 0 1 3.225-3.226H61.29a3.23 3.23 0 0 1 3.226 3.226v10.849a12.972 12.972 0 0 1 3.226-2.652v-9.81a4.845 4.845 0 0 0-4.839-4.838H8.064a4.845 4.845 0 0 0-4.838 4.838zm62.714-7.46a8.095 8.095 0 0 1 4.425 4.423 11.235 11.235 0 0 0 5.442 1.424c6.225 0 11.29-5.066 11.29-11.29 0-6.224-5.065-11.29-11.29-11.29-6.224 0-11.29 5.066-11.29 11.29 0 1.915.505 3.777 1.423 5.442zM80.297 83.55l3.682-3.682 1.023-6.14a22.636 22.636 0 0 0-2.013-.978l-6.673 24.023h.168l5.558-9.727zM72.07 96.774L65.4 72.753c-.69.292-1.361.62-2.013.977l1.023 6.14 3.682 3.683-1.747 3.494 5.558 9.727zM54.839 45.161h-3.226v25.806h3.226zm12.175 23.617a12.859 12.859 0 0 1-2.498-2.208v3.071a25.5 25.5 0 0 1 2.498-.863zM61.29 38.71H9.677v32.258h12.904V54.838h9.677v16.13h3.226V48.386h9.677v22.58h3.226V41.935h9.677v29.032h3.226zM41.935 51.612H38.71v19.355h3.225zm-12.903 6.452h-3.226v12.903h3.226zM8.064 80.644H51.88a25.97 25.97 0 0 1 5.303-6.451H3.226v1.613a4.845 4.845 0 0 0 4.838 4.839zm16.13 9.678H48.61a25.538 25.538 0 0 1 1.676-6.452H24.193zm24.193 6.452v-3.226h-33.87v3.226zm8.065 0V83.87h3.225v12.904h8.512l-5.5-9.628 1.479-2.958-2.77-2.77-.956-5.74c-5.358 4.133-8.83 10.596-8.83 17.87v3.226zm40.322-3.226c0-7.274-3.47-13.737-8.827-17.87l-.957 5.74-2.769 2.77 1.479 2.958-5.502 9.628h8.512V83.87h3.225v12.904h4.84zm-22.58-22.58c-1.983 0-3.896.282-5.73.764l5.73 20.626 5.729-20.626a22.462 22.462 0 0 0-5.73-.765zm0-22.581c-5.338 0-9.678 4.34-9.678 9.677s4.34 9.677 9.678 9.677c5.337 0 9.677-4.34 9.677-9.677s-4.34-9.677-9.677-9.677zm16.94-15.239l.418-.803c.48-.926.872-1.863 1.164-2.784l.273-.863 3.785-.93v-7.15l-3.784-.928-.272-.865a17.56 17.56 0 0 0-1.165-2.782l-.418-.803 2.025-3.345-5.054-5.054-3.345 2.025-.803-.418a17.723 17.723 0 0 0-2.782-1.165l-.865-.272-.93-3.786h-7.149l-.929 3.784-.864.272c-.921.293-1.858.685-2.783 1.166l-.803.417-3.345-2.024-5.053 5.053 2.024 3.345-.418.803c-.48.926-.872 1.863-1.164 2.783l-.273.864-3.785.93v8.414h7.316c-.549-1.549-.865-3.176-.865-4.839 0-8.005 6.512-14.516 14.516-14.516 8.005 0 14.517 6.51 14.517 14.516 0 8.005-6.512 14.516-14.517 14.516-1.662 0-3.29-.316-4.838-.864v7.74a12.824 12.824 0 0 1 3.226-.424c1.706 0 3.333.34 4.825.947l.171-.167 1.121-4.564.865-.273c.92-.292 1.858-.684 2.782-1.164l.803-.418 3.345 2.024 5.054-5.053zm-23.392-8.955c0-4.447 3.618-8.065 8.064-8.065 4.447 0 8.065 3.618 8.065 8.065 0 4.447-3.618 8.065-8.065 8.065-4.446 0-8.064-3.618-8.064-8.065zm3.226 0a4.845 4.845 0 0 0 4.838 4.839 4.845 4.845 0 0 0 4.84-4.839c0-2.668-2.172-4.839-4.84-4.839a4.845 4.845 0 0 0-4.838 4.84zM12.903 41.935h3.226v3.226h-3.226zm6.452 0h3.226v3.226h-3.226zm6.451 0h3.226v3.226h-3.226zm-12.903 6.452h16.13v3.225h-16.13z"/></g></g></svg>