<svg xmlns="http://www.w3.org/2000/svg" width="100" height="100" viewBox="0 0 100 100"><g><g><path fill="#0082ed" d="M33.87 53.225h3.227a3.229 3.229 0 0 0 3.225 3.226 3.229 3.229 0 0 0 3.226-3.226h3.226a6.459 6.459 0 0 1-6.452 6.452 6.459 6.459 0 0 1-6.451-6.452zM32.259 38.71a1.613 1.613 0 1 1 0 3.226 1.613 1.613 0 0 1 0-3.226zm16.129 0a1.613 1.613 0 1 1 0 3.226 1.613 1.613 0 0 1 0-3.226zM100 77.42H65.043l2.884 1.298a21.602 21.602 0 0 1 12.718 19.67V100H0v-1.613a21.602 21.602 0 0 1 12.718-19.67l16.687-7.51a4.844 4.844 0 0 0 2.853-4.41v-2.038a27.032 27.032 0 0 1-8.587-13.2c-4.198-.274-7.542-3.743-7.542-8.011V30.645c0-10.51 6.747-19.45 16.129-22.783V0H100zM40.322 9.677c-11.56 0-20.967 9.406-20.967 20.968v6.491c.942-.712 2.027-1.245 3.226-1.49V34.36a5.332 5.332 0 0 1 5.327-5.327c1.055 0 2.077.308 2.955.895a13.845 13.845 0 0 0 7.698 2.33H50c2.622 0 4.935 1.28 6.41 3.226h.042c1.822 0 3.487.631 4.838 1.655v-6.493c0-11.562-9.406-20.968-20.968-20.968zm17.742 30.645v3.595c0 1.452-.117 2.88-.335 4.276 2.045-.563 3.561-2.423 3.561-4.645 0-2.15-1.419-3.957-3.363-4.584.076.444.137.894.137 1.358zm-35.148 7.87a27.78 27.78 0 0 1-.335-4.275v-4.91c-1.873.667-3.226 2.44-3.226 4.541 0 2.222 1.514 4.082 3.561 4.645zm17.406 17.802c8.84-3.81 14.517-12.404 14.517-22.077v-3.595A4.845 4.845 0 0 0 50 35.483H38.56c-3.387 0-6.67-.993-9.487-2.872a2.102 2.102 0 0 0-3.268 1.747v9.56c0 9.673 5.676 18.268 14.516 22.076zm-.598 3.246a27.515 27.515 0 0 1-4.26-2.167 8.053 8.053 0 0 1-.832 3.296l5.69 7.587 5.692-7.585a8.015 8.015 0 0 1-.832-3.296 27.626 27.626 0 0 1-4.261 2.165l-.599.239zm12.626 6.005l-8.086 21.529h.45l6.231-3.74-3.132-4.699 6.889-5.166-1.24-7.423zM35.93 96.774h.45l-8.085-21.528-1.113.5-1.239 7.423 6.89 5.166-3.133 4.7zm-3.362-23.783c-.408.34-.86.633-1.337.889l3.501 9.324 3.38-2.817zm7.26 23.783h.99l3.895-10.371-4.39-3.658-4.39 3.658zm9.588-22.896a7.952 7.952 0 0 1-1.337-.888l-5.547 7.397 3.382 2.817zM3.296 96.774h9.607v-9.678h3.226v9.678h13.53l-4.522-2.712 3.32-4.977-6.015-4.511 1.206-7.237-9.608 4.322A18.379 18.379 0 0 0 3.297 96.774zm63.307-15.116l-9.608-4.323 1.207 7.237-6.015 4.512 3.32 4.977-4.522 2.713h13.531v-9.678h3.226v9.678h9.606a18.381 18.381 0 0 0-10.745-15.116zM96.774 3.225h-61.29v3.713a24.315 24.315 0 0 1 4.838-.487c13.34 0 24.194 10.853 24.194 24.194v12.903c0 4.268-3.344 7.737-7.542 8.011a27.032 27.032 0 0 1-8.587 13.2v2.037c0 1.9 1.12 3.632 2.853 4.412l6.634 2.985h38.9zm-12.903 22.58h9.677v45.162h-9.677zm3.226 41.936h3.226v-38.71h-3.226zM70.967 38.71h9.678v32.258h-9.677zm3.226 29.032h3.226V41.935h-3.226zM58.065 54.838h9.677v16.13h-9.678zm3.225 12.903h3.226v-9.677H61.29zm29.033-61.29h3.225v3.226h-3.225zm-6.452 0h3.226v3.226H83.87zm-16.13 0h12.904v3.226H67.742zm0 6.451h25.807v3.226H67.742zm0 6.452h25.807v3.226H67.742z"/></g></g></svg>