<svg xmlns="http://www.w3.org/2000/svg" width="99" height="99" viewBox="0 0 99 99"><g><g><path fill="#0082ed" d="M99 34.65v42.9a4.965 4.965 0 0 1-4.95 4.95H56.397l1.105 6.6H67.65a1.674 1.674 0 0 1 1.32.66l4.95 6.6A1.65 1.65 0 0 1 72.6 99H26.4a1.65 1.65 0 0 1-1.32-2.64l4.95-6.6a1.675 1.675 0 0 1 1.32-.66h10.147l1.106-6.6H4.95A4.965 4.965 0 0 1 0 77.55v-42.9a4.965 4.965 0 0 1 4.95-4.95H6.6v-8.25a4.965 4.965 0 0 1 4.95-4.95h19.8a4.965 4.965 0 0 1 4.95 4.95v8.25h3.3v-4.95a8.25 8.25 0 0 1 8.25-8.25h3.3a8.25 8.25 0 0 1 8.25 8.25v4.95h34.65A4.965 4.965 0 0 1 99 34.65zM47.85 19.8a4.965 4.965 0 0 0-4.95 4.95h3.036l4.686-1.568a1.697 1.697 0 0 1 1.7.396l1.154 1.171H56.1a4.965 4.965 0 0 0-4.95-4.95zM42.9 31.35a4.965 4.965 0 0 0 4.95 4.95h3.3a4.965 4.965 0 0 0 4.95-4.95v-3.3h-3.3a1.704 1.704 0 0 1-1.172-.48l-.924-.94-3.976 1.337a1.97 1.97 0 0 1-.528.083h-3.3zM55.456 46.2H43.543l2.195 6.6h7.524zm.561 8.777A1.672 1.672 0 0 1 54.45 56.1h-9.9a1.672 1.672 0 0 1-1.568-1.122l-2.87-8.629A4.936 4.936 0 0 0 36.3 51.15V62.7h26.4V51.15a4.936 4.936 0 0 0-3.812-4.8zM51.15 42.9v-3.3h-3.3v3.3zM9.9 31.35c0 .911.739 1.65 1.65 1.65h9.9c.437.003.857.174 1.171.478l3.779 3.795V34.65c0-.912.739-1.65 1.65-1.65h3.3A1.65 1.65 0 0 0 33 31.35v-9.9c0-.912-.739-1.65-1.65-1.65h-19.8a1.65 1.65 0 0 0-1.65 1.65zM32.175 92.4L29.7 95.7h39.6l-2.475-3.3zm21.978-3.3l-1.106-6.6h-7.095l-1.105 6.6zM95.7 72.6H3.3v4.95c0 .91.739 1.65 1.65 1.65h89.1a1.65 1.65 0 0 0 1.65-1.65zm0-37.95A1.65 1.65 0 0 0 94.05 33H59.235a8.297 8.297 0 0 1-4.785 5.907V42.9h3.3A8.25 8.25 0 0 1 66 51.15v13.2A1.65 1.65 0 0 1 64.35 66h-29.7A1.65 1.65 0 0 1 33 64.35v-13.2a8.25 8.25 0 0 1 8.25-8.25h3.3v-3.993a8.296 8.296 0 0 1-4.785-5.908h-3.762a4.966 4.966 0 0 1-4.653 3.3H29.7v4.95a1.629 1.629 0 0 1-1.023 1.518c-.196.093-.41.138-.627.133a1.66 1.66 0 0 1-1.172-.48l-6.105-6.12H11.55A4.966 4.966 0 0 1 6.897 33H4.95a1.65 1.65 0 0 0-1.65 1.65V69.3h92.4zm-36.3-19.8v-9.9A4.95 4.95 0 0 1 64.35 0h19.8a4.95 4.95 0 0 1 4.95 4.95v9.9a4.95 4.95 0 0 1-4.95 4.95h-9.217l-6.117 6.116A1.648 1.648 0 0 1 66 24.749V19.8h-1.65a4.95 4.95 0 0 1-4.95-4.95zm3.3 0c0 .91.739 1.65 1.65 1.65h3.3c.911 0 1.65.738 1.65 1.65v2.617l3.783-3.784a1.65 1.65 0 0 1 1.167-.484h9.9a1.65 1.65 0 0 0 1.65-1.65v-9.9a1.65 1.65 0 0 0-1.65-1.65h-19.8a1.65 1.65 0 0 0-1.65 1.65zm16.5-6.6h3.3v3.3h-3.3zm-13.2 0h9.9v3.3H66zm-52.8 16.5h3.3v3.3h-3.3zm6.6 0h9.9v3.3h-9.9zM72.6 36.3h3.3v3.3h-3.3zm6.6 0h13.2v3.3H79.2zm-6.6 6.6h19.8v3.3H72.6zm0 6.6h19.8v3.3H72.6zm0 6.6h19.8v3.3H72.6zm0 6.6h19.8V66H72.6zm-66 1.65v-16.5c0-.912.739-1.65 1.65-1.65h19.8c.911 0 1.65.738 1.65 1.65v16.5A1.65 1.65 0 0 1 28.05 66H8.25a1.65 1.65 0 0 1-1.65-1.65zm3.3-1.65h16.5V49.5H9.9z"/></g></g></svg>