<svg xmlns="http://www.w3.org/2000/svg" width="100" height="100" viewBox="0 0 100 100"><g><g><path fill="#28292d" d="M100 91.699v6.836c0 .809-.656 1.464-1.465 1.464H4.395a4.358 4.358 0 0 1-3.109-1.29A4.355 4.355 0 0 1 0 95.605V77.148a1.465 1.465 0 0 1 2.93 0v18.457c0 .39.152.758.428 1.033.28.28.646.432 1.036.432H97.07v-3.906H51.562a1.465 1.465 0 0 1 0-2.93h46.973c.81 0 1.465.656 1.465 1.465zM0 70.507V1.464C0 .655.656 0 1.465 0H8.3c.809 0 1.465.656 1.465 1.465v88.77h35.156a1.465 1.465 0 0 1 0 2.93H8.3a1.465 1.465 0 0 1-1.465-1.465V2.929H2.93v67.578a1.465 1.465 0 1 1-2.93 0zm28.613-15.039c.81 0 1.465.656 1.465 1.465v27.344c0 .809-.656 1.465-1.465 1.465h-9.765a1.465 1.465 0 0 1-1.465-1.465V56.933c0-.81.656-1.465 1.465-1.465zm-1.465 2.93h-6.836v24.414h6.836zm45.02-2.93c.809 0 1.465.656 1.465 1.465v27.344c0 .809-.656 1.465-1.465 1.465h-9.766a1.465 1.465 0 0 1-1.465-1.465V56.933c0-.81.656-1.465 1.465-1.465zm-1.465 2.93h-6.836v24.414h6.836z"/></g><g><path fill="#0082ed" d="M16.016 39.16c0-4.04 3.285-7.325 7.324-7.325 1.8 0 3.45.654 4.727 1.736l10.801-8.506a7.278 7.278 0 0 1-.782-3.288c0-4.039 3.285-7.324 7.324-7.324s7.324 3.285 7.324 7.324c0 1.193-.289 2.32-.797 3.316l10.644 8.458a7.291 7.291 0 0 1 4.704-1.716c1.013 0 1.978.207 2.857.58l13.75-20.01a7.297 7.297 0 0 1-2.056-5.081c0-4.039 3.285-7.325 7.324-7.325s7.324 3.286 7.324 7.325c0 4.038-3.285 7.324-7.324 7.324a7.279 7.279 0 0 1-2.856-.58l-13.75 20.011a7.297 7.297 0 0 1 2.055 5.08c0 4.04-3.285 7.325-7.324 7.325s-7.324-3.286-7.324-7.325c0-1.192.289-2.319.797-3.315l-10.644-8.458A7.289 7.289 0 0 1 45.41 29.1a7.29 7.29 0 0 1-4.727-1.736l-10.801 8.507c.499.99.782 2.106.782 3.287 0 4.04-3.285 7.325-7.324 7.325s-7.324-3.286-7.324-7.325zm68.75-31.836a4.4 4.4 0 0 0 4.394 4.394 4.4 4.4 0 0 0 4.395-4.394 4.4 4.4 0 0 0-4.395-4.395 4.4 4.4 0 0 0-4.394 4.395zM62.89 39.159a4.4 4.4 0 0 0 4.394 4.395 4.4 4.4 0 0 0 4.395-4.395 4.4 4.4 0 0 0-4.395-4.394 4.4 4.4 0 0 0-4.394 4.394zM41.016 21.777a4.4 4.4 0 0 0 4.394 4.395 4.4 4.4 0 0 0 4.395-4.395 4.399 4.399 0 0 0-4.395-4.394 4.4 4.4 0 0 0-4.394 4.394zM18.946 39.16a4.4 4.4 0 0 0 4.394 4.395 4.4 4.4 0 0 0 4.394-4.395 4.4 4.4 0 0 0-4.394-4.394 4.4 4.4 0 0 0-4.395 4.394zm31.347-1.073c.809 0 1.465.656 1.465 1.464v44.727c0 .809-.656 1.465-1.465 1.465h-9.766a1.465 1.465 0 0 1-1.465-1.465V39.55c0-.808.656-1.464 1.465-1.464zm-1.465 2.929h-6.836v41.797h6.836zm45.215-17.383c.809 0 1.465.656 1.465 1.465v59.18c0 .809-.656 1.465-1.465 1.465h-9.766a1.465 1.465 0 0 1-1.465-1.465v-59.18c0-.809.656-1.465 1.465-1.465zm-1.465 2.93h-6.836v56.25h6.836z"/></g></g></svg>