<svg xmlns="http://www.w3.org/2000/svg" width="100" height="100" viewBox="0 0 100 100"><g><g><path fill="#0082ed" d="M25.12 49.38l6.666-16.666 3.095 1.238-6.666 16.667zM24.333 38l-4.889 3.666 4.89 3.667-2 2.667-6.667-5a1.667 1.667 0 0 1 0-2.667l6.666-5zm11.334 7.333l4.889-3.667-4.89-3.667 2-2.666 6.667 5a1.667 1.667 0 0 1 0 2.667l-6.666 5zm-29-20.334H10v3.334H6.667zm6.666 0h3.334v3.334h-3.334zM20 25h3.333v3.334H20zm80 40.334v26.333A8.342 8.342 0 0 1 91.667 100s-5.23-.012-5.344-.036l-19.68-4.142-19.632 4.142c-.114.024-5.344.036-5.344.036a8.342 8.342 0 0 1-8.334-8.333v-5H20a5.006 5.006 0 0 1-5-5 5.024 5.024 0 0 1 5-5h2.132L24.354 70H6.667A6.674 6.674 0 0 1 0 63.333V24.999a6.674 6.674 0 0 1 6.667-6.666h36.877a6.671 6.671 0 0 1 4.815-8.13 7.51 7.51 0 0 1 7.474-6.87c1.25.002 2.479.32 3.573.923a8.321 8.321 0 0 1 14.521 0 7.431 7.431 0 0 1 3.573-.923 7.51 7.51 0 0 1 7.473 6.87A6.666 6.666 0 0 1 86.556 22.5 6.665 6.665 0 0 1 83.334 35h-.083a16.62 16.62 0 0 1-6.583 11.66v5.228l13.318 1.896A11.747 11.747 0 0 1 100 65.333zM60 53.027c1.31 3.319 4.28 4.511 6.667 4.511 2.386 0 5.357-1.192 6.666-4.511v-4.42a16.654 16.654 0 0 1-13.333 0zm20-20.292A6.662 6.662 0 0 1 68.544 30H64.79a6.663 6.663 0 0 1-11.456 2.736v.598c0 7.363 5.97 13.333 13.334 13.333C74.03 46.666 80 40.696 80 33.333zm-30-1.069V25a3.337 3.337 0 0 0-3.333 3.334A3.337 3.337 0 0 0 50 31.666zm28.596-8.943l-.414-1.24a6.451 6.451 0 0 1-1.515.183 6.67 6.67 0 0 1-5.71-3.229 6.672 6.672 0 0 1-8.58 0 6.67 6.67 0 0 1-5.71 3.23 6.45 6.45 0 0 1-1.516-.183l-.413 1.24a6.66 6.66 0 0 1 10.051 3.943h3.755a6.679 6.679 0 0 1 6.456-5 6.626 6.626 0 0 1 3.596 1.056zM75 25a3.333 3.333 0 1 0 0 6.667 3.333 3.333 0 0 0 0-6.667zm-16.667 0a3.333 3.333 0 1 0 0 6.667 3.333 3.333 0 0 0 0-6.667zm28.334 3.334a3.333 3.333 0 0 0-3.334-3.334v6.667a3.333 3.333 0 0 0 3.334-3.333zm-36.747-15A3.333 3.333 0 1 0 50 20c.164 0 1.718-.074 2.119.041l.428-1.284a1.667 1.667 0 0 1 2.432-.906c.508.311 1.092.478 1.688.482A3.337 3.337 0 0 0 60 14.999a1.666 1.666 0 0 1 2.193-1.581l.34.113c.474.157.853.52 1.032.987a3.313 3.313 0 0 0 6.204 0c.178-.467.557-.83 1.032-.987l.34-.113A1.665 1.665 0 0 1 73.332 15a3.337 3.337 0 0 0 3.334 3.334 3.274 3.274 0 0 0 1.687-.481 1.667 1.667 0 0 1 2.433.905l.428 1.284c.401-.115 1.955-.041 2.118-.041a3.334 3.334 0 0 0 .08-6.666c-.042.004-.09.007-.142.007a1.628 1.628 0 0 1-1.276-.567 1.668 1.668 0 0 1-.396-1.34l.01-.07c.031-.176.05-.353.058-.53A4.172 4.172 0 0 0 77.5 6.665a4.111 4.111 0 0 0-3.08 1.393 1.667 1.667 0 0 1-2.867-.771 4.995 4.995 0 0 0-9.772 0 1.667 1.667 0 0 1-2.868.77 4.11 4.11 0 0 0-3.08-1.392 4.172 4.172 0 0 0-4.166 4.167c.007.178.026.355.056.53l.011.071a1.669 1.669 0 0 1-1.814 1.9zm-46.587 45h33.283a11.654 11.654 0 0 1 5.93-3.328l14.12-3.02V46.66A16.618 16.618 0 0 1 50.084 35H50a6.665 6.665 0 0 1-3.224-12.5 6.683 6.683 0 0 1-1.179-.834H6.667A3.338 3.338 0 0 0 3.333 25zm3.334 8.333h26.666v-.25a11.537 11.537 0 0 1 1.027-4.75H3.333v1.667a3.338 3.338 0 0 0 3.334 3.333zm18.979 10h7.687V70h-5.465zM20 83.333h13.333v-3.334H20a1.594 1.594 0 0 0-1.155.48l-.033.031c-.31.304-.483.722-.479 1.156.001.92.747 1.665 1.667 1.667zm38.562 10.786l-3.736-.787h-6.493c-.329 0-.65-.097-.924-.28L42.829 90h-6.162v1.667a5.006 5.006 0 0 0 5 5h4.826zm38.105-7.577l-41.795-3.215a1.66 1.66 0 0 1-.529-.13l-11.352-4.864h-6.324v8.333h6.666c.33 0 .651.097.925.28l4.58 3.053H55c.115 0 .23.012.343.036l31.497 6.63h4.827a5.006 5.006 0 0 0 5-4.999zm0-8.21h-6.324l-3.017 1.298-5.646 2.416L96.667 83.2zm0-13a8.394 8.394 0 0 0-7.157-8.25l-13.08-1.86-.406-.059a10.518 10.518 0 0 1-4.462 4.502c-5.144 2.703-11.505.724-14.208-4.419l-14.106 3.016a8.4 8.4 0 0 0-6.581 8.154V75h6.666c.226 0 .45.046.657.135l1.01.433v-5.568h3.333v6.997l7.07 3.03 11.288.868 11.239-.868 7.07-3.03v-6.997h3.333v5.568l1.009-.432a1.67 1.67 0 0 1 .658-.136h6.667zM71.558 36.466l.217 3.326c-2.115.138-4.33.209-6.58.209h-3.528v-3.334h3.528c2.18 0 4.32-.067 6.363-.201z"/></g></g></svg>